<?xml version="1.0" encoding="UTF-8"?><svg xmlns="http://www.w3.org/2000/svg" viewBox="0 0 80.76 128"><g id="a"/><g id="b"><g id="c"><g><path d="M66.36,10l-25.98,45L14.4,10h51.96M76.75,0H4.01C.93,0-1,3.33,.54,6l36.37,63c.77,1.33,2.12,2,3.46,2s2.69-.67,3.46-2L80.22,6c1.54-2.67-.38-6-3.46-6h0Z"/><path d="M40.22,59.29c.35,0,1.21,.1,1.73,1l36.2,62.71c.52,.9,.17,1.7,0,2-.17,.3-.69,1-1.73,1H4.02c-1.04,0-1.56-.7-1.73-1s-.52-1.1,0-2L38.49,60.29c.52-.9,1.38-1,1.73-1m0-2c-1.35,0-2.69,.67-3.46,2L.55,122c-1.54,2.67,.38,6,3.46,6H76.42c3.08,0,5-3.33,3.46-6L43.69,59.29c-.77-1.33-2.12-2-3.46-2h0Z"/><g><polygon points="17.69 117 40.38 74.37 63.07 117 17.69 117"/><path d="M40.38,78.63l19.36,36.37H21.02l19.36-36.37m0-8.51L14.36,119h52.04l-26.02-48.88h0Z"/></g></g></g></g></svg>